<?xml version="1.0" encoding="UTF-8" standalone="no"?>
<!-- Created with Inkscape (http://www.inkscape.org/) -->

<svg
   width="1024"
   height="1024"
   viewBox="0 0 270.93333 270.93333"
   version="1.1"
   id="svg5725"
   inkscape:version="1.2 (dc2aedaf03, 2022-05-15)"
   sodipodi:docname="king.svg"
   inkscape:export-filename="king.png"
   inkscape:export-xdpi="96"
   inkscape:export-ydpi="96"
   xmlns:inkscape="http://www.inkscape.org/namespaces/inkscape"
   xmlns:sodipodi="http://sodipodi.sourceforge.net/DTD/sodipodi-0.dtd"
   xmlns="http://www.w3.org/2000/svg"
   xmlns:svg="http://www.w3.org/2000/svg">
  <sodipodi:namedview
     id="namedview5727"
     pagecolor="#ffffff"
     bordercolor="#666666"
     borderopacity="1.0"
     inkscape:showpageshadow="2"
     inkscape:pageopacity="0.0"
     inkscape:pagecheckerboard="true"
     inkscape:deskcolor="#d1d1d1"
     inkscape:document-units="mm"
     showgrid="false"
     inkscape:zoom="1.2938725"
     inkscape:cx="343.92879"
     inkscape:cy="489.61548"
     inkscape:window-width="3840"
     inkscape:window-height="2059"
     inkscape:window-x="0"
     inkscape:window-y="0"
     inkscape:window-maximized="1"
     inkscape:current-layer="layer1" />
  <defs
     id="defs5722" />
  <g
     inkscape:label="Layer 1"
     inkscape:groupmode="layer"
     id="layer1">
    <path
       style="color:#000000;fill:#000000;stroke-width:10;stroke-linejoin:round"
       d="M 34.489156,202.95751 H 244.62739 v 37.33468 H 34.489156 Z"
       id="path7024" />
    <path
       style="color:#000000;fill:#ffffff;stroke-linejoin:round"
       d="m 34.489797,197.95742 a 5.0005,5.0005 0 0 0 -5,5 v 37.33398 a 5.0005,5.0005 0 0 0 5,5 H 244.62652 a 5.0005,5.0005 0 0 0 5,-5 v -37.33398 a 5.0005,5.0005 0 0 0 -5,-5 z m 5,10 H 239.62652 V 235.2914 H 39.489797 Z"
       id="path7026" />
    <path
       style="color:#000000;fill:#000000;stroke-width:10;stroke-linejoin:round"
       d="M 155.21342,131.74572 A 57.884056,57.884056 0 0 1 97.329358,189.62977 57.884056,57.884056 0 0 1 39.445302,131.74572 57.884056,57.884056 0 0 1 97.329358,73.861663 57.884056,57.884056 0 0 1 155.21342,131.74572 Z"
       id="path7012" />
    <path
       style="color:#000000;fill:#000000;stroke-width:10;stroke-linejoin:round"
       d="m 232.92087,129.67411 a 57.884056,57.884056 0 0 1 -57.88406,57.88405 57.884056,57.884056 0 0 1 -57.88405,-57.88405 57.884056,57.884056 0 0 1 57.88405,-57.884056 57.884056,57.884056 0 0 1 57.88406,57.884056 z"
       id="path7006" />
    <path
       id="path7014"
       style="color:#000000;fill:#ffffff;stroke-linejoin:round"
       d="m 175.03663,66.789683 c -15.25793,0 -29.26395,5.466036 -40.16654,14.540198 -10.48461,-7.827954 -23.48124,-12.467973 -37.540348,-12.467973 -34.670613,0 -62.88505,28.213915 -62.88505,62.884532 0,34.67061 28.214437,62.88298 62.88505,62.88298 15.257678,0 29.262908,-5.4657 40.164998,-14.53916 10.48514,7.82836 23.48238,12.46849 37.54189,12.46849 34.67062,0 62.88505,-28.21392 62.88505,-62.88454 0,-34.670597 -28.21443,-62.884527 -62.88505,-62.884527 z m 0,9.999906 c 29.26623,0 52.88463,23.618401 52.88463,52.884621 0,29.26623 -23.6184,52.88463 -52.88463,52.88463 -11.29343,0 -21.74388,-3.51952 -30.3227,-9.52086 9.64659,-11.05547 15.49828,-25.50316 15.49828,-41.29154 0,-16.99107 -6.77846,-32.428657 -17.76946,-43.757537 8.97422,-7.019861 20.28396,-11.199314 32.59388,-11.199314 z m -77.706888,2.072225 c 11.293098,0 21.742838,3.519335 30.321148,9.520349 -9.64676,11.05584 -15.49879,25.503917 -15.49879,41.292047 0,16.99094 6.77917,32.42817 17.77049,43.75702 -8.97372,7.01919 -20.28319,11.19829 -32.592848,11.19829 -29.266222,0 -52.884627,-23.61686 -52.884627,-52.88308 0,-29.26622 23.618405,-52.884626 52.884627,-52.884626 z m 37.894848,15.957679 c 9.27885,9.522257 14.98772,22.540927 14.98772,36.926947 0,13.36829 -4.92927,25.5559 -13.07207,34.8542 -9.27904,-9.5222 -14.98824,-22.54067 -14.98824,-36.92643 0,-13.36802 4.92963,-25.55604 13.07259,-34.854717 z" />
    <path
       style="color:#000000;fill:#000000;stroke-width:10;stroke-linejoin:round"
       d="m 84.46314,180.16269 h 111.52584 v 27.88793 H 84.46314 Z"
       id="path7018" />
    <path
       style="color:#000000;fill:#ffffff;stroke-linejoin:round"
       d="m 84.462453,175.16249 a 5.0005,5.0005 0 0 0 -5,5 v 27.88868 a 5.0005,5.0005 0 0 0 5,5 H 195.9898 a 5.0005,5.0005 0 0 0 5,-5 v -27.88868 a 5.0005,5.0005 0 0 0 -5,-5 z m 5,10 H 190.9898 v 17.88868 H 89.462453 Z"
       id="path7020" />
    <rect
       style="fill:#ffffff;fill-opacity:1;stroke:#ffffff;stroke-width:0;stroke-linejoin:round;stroke-dasharray:none"
       id="rect5782"
       width="17.57102"
       height="45.151505"
       x="125.08307"
       y="37.085773" />
    <rect
       style="fill:#ffffff;fill-opacity:1;stroke:#ffffff;stroke-width:0;stroke-linejoin:round;stroke-dasharray:none"
       id="rect5784"
       width="51.077526"
       height="14.412362"
       x="107.68844"
       y="50.014874" />
  </g>
</svg>
