<?xml version="1.0" encoding="UTF-8" standalone="no"?>
<!-- Created with Inkscape (http://www.inkscape.org/) -->

<svg
   width="1024"
   height="1024"
   viewBox="0 0 270.93333 270.93333"
   version="1.1"
   id="svg5"
   inkscape:version="1.2 (dc2aedaf03, 2022-05-15)"
   sodipodi:docname="knight.svg"
   inkscape:export-filename="knight.png"
   inkscape:export-xdpi="96"
   inkscape:export-ydpi="96"
   xmlns:inkscape="http://www.inkscape.org/namespaces/inkscape"
   xmlns:sodipodi="http://sodipodi.sourceforge.net/DTD/sodipodi-0.dtd"
   xmlns="http://www.w3.org/2000/svg"
   xmlns:svg="http://www.w3.org/2000/svg">
  <sodipodi:namedview
     id="namedview7"
     pagecolor="#ffffff"
     bordercolor="#666666"
     borderopacity="1.0"
     inkscape:showpageshadow="2"
     inkscape:pageopacity="0.0"
     inkscape:pagecheckerboard="true"
     inkscape:deskcolor="#d1d1d1"
     inkscape:document-units="mm"
     showgrid="false"
     inkscape:zoom="1.2938725"
     inkscape:cx="233.02141"
     inkscape:cy="627.18699"
     inkscape:window-width="3840"
     inkscape:window-height="2059"
     inkscape:window-x="0"
     inkscape:window-y="0"
     inkscape:window-maximized="1"
     inkscape:current-layer="layer1" />
  <defs
     id="defs2">
    <inkscape:path-effect
       effect="bspline"
       id="path-effect128"
       is_visible="true"
       lpeversion="1"
       weight="33.333333"
       steps="2"
       helper_size="0"
       apply_no_weight="true"
       apply_with_weight="true"
       only_selected="false" />
  </defs>
  <g
     inkscape:label="Layer 1"
     inkscape:groupmode="layer"
     id="layer1">
    <path
       id="path2510"
       style="color:#000000;fill:#ffffff;stroke-linejoin:round;paint-order:fill markers stroke"
       d="M 146.53731 29.685527 L 109.1737 36.618953 L 81.134583 58.775224 L 65.150545 106.61158 L 69.741996 177.168 L 98.9552 178.29093 L 98.92006 198.58374 L 43.511556 198.58374 A 5.0005 5.0005 0 0 0 38.511861 203.58396 L 38.511861 249.06852 A 5.0005 5.0005 0 0 0 43.511556 254.06821 L 234.51954 254.06821 A 5.0005 5.0005 0 0 0 239.51975 249.06852 L 239.51975 203.58396 A 5.0005 5.0005 0 0 0 234.51954 198.58374 L 178.46869 198.58374 L 161.9064 99.761869 L 196.57818 103.99624 L 222.16008 89.142362 L 207.72841 81.9335 L 222.0743 71.642655 L 204.77148 49.97266 L 192.20326 51.351388 L 180.02157 46.689657 L 173.21475 43.306917 L 169.57208 35.568372 L 146.53731 29.685527 z M 146.19521 39.920044 L 162.53323 44.091882 L 165.65035 50.712667 L 176.00011 55.857572 L 190.88861 61.556449 L 200.39087 60.513619 L 207.68965 69.654146 L 188.43139 83.468807 L 201.10762 89.802787 L 194.45893 93.661983 L 149.83013 88.212703 L 168.23418 198.0215 L 110.35605 198.58374 L 108.91997 198.58374 L 108.97268 168.66981 L 79.134705 167.52156 L 75.255872 107.92003 L 89.673596 64.773307 L 113.43184 45.999776 L 146.19521 39.920044 z M 48.511768 208.58417 L 98.90249 208.58417 L 98.90249 208.69527 L 103.9611 208.6467 L 110.40256 208.58417 L 229.51932 208.58417 L 229.51932 244.06831 L 48.511768 244.06831 L 48.511768 208.58417 z " />
    <path
       style="color:#000000;fill:#000000;stroke-width:10;stroke-linejoin:round;paint-order:fill markers stroke"
       d="M 43.510803,202.52622 H 234.51857 v 45.48431 H 43.510803 Z"
       id="path2508" />
    <path
       style="color:#000000;fill:#000000;stroke-width:10"
       d="m 103.91154,203.64674 0.0519,-30.1663 -29.525176,-1.13567 -4.234645,-65.07936 15.20027,-45.491511 25.898901,-20.463925 35.06336,-6.506839 19.68631,5.026935 3.38041,7.179492 8.57815,4.263832 13.53423,5.180671 11.03629,-1.211286 12.30075,15.405222 -16.80202,12.053048 13.55387,6.771307 -16.1153,9.357079 -39.65084,-4.842261 18.26446,108.977876 z"
       id="path2502" />
    <circle
       style="fill:#000000;fill-opacity:1;fill-rule:nonzero;stroke:#ffffff;stroke-width:10;stroke-linejoin:round;stroke-dasharray:none;stroke-opacity:1;paint-order:normal"
       id="path2570"
       cx="156.61612"
       cy="64.336578"
       r="5" />
  </g>
</svg>
