<?xml version="1.0" encoding="UTF-8" standalone="no"?>
<!-- Created with Inkscape (http://www.inkscape.org/) -->

<svg
   width="4096"
   height="4096"
   viewBox="0 0 1083.7333 1083.7333"
   version="1.1"
   id="svg5"
   xml:space="preserve"
   inkscape:version="1.2 (dc2aedaf03, 2022-05-15)"
   sodipodi:docname="main-menu-background.svg"
   xmlns:inkscape="http://www.inkscape.org/namespaces/inkscape"
   xmlns:sodipodi="http://sodipodi.sourceforge.net/DTD/sodipodi-0.dtd"
   xmlns="http://www.w3.org/2000/svg"
   xmlns:svg="http://www.w3.org/2000/svg"><sodipodi:namedview
     id="namedview7"
     pagecolor="#ffffff"
     bordercolor="#666666"
     borderopacity="1.0"
     inkscape:showpageshadow="2"
     inkscape:pageopacity="0.0"
     inkscape:pagecheckerboard="true"
     inkscape:deskcolor="#d1d1d1"
     inkscape:document-units="px"
     showgrid="false"
     inkscape:zoom="0.25"
     inkscape:cx="3154"
     inkscape:cy="2010"
     inkscape:window-width="3840"
     inkscape:window-height="2047"
     inkscape:window-x="0"
     inkscape:window-y="0"
     inkscape:window-maximized="1"
     inkscape:current-layer="layer1" /><defs
     id="defs2" /><g
     inkscape:label="Layer 1"
     inkscape:groupmode="layer"
     id="layer1"><rect
       style="fill:#ffffff;fill-opacity:1;stroke:#ffffff;stroke-width:1.51104;stroke-linejoin:round;stroke-dasharray:none"
       id="rect4162"
       width="1082.2223"
       height="1082.2223"
       x="0.75552011"
       y="0.75552011" /><g
       id="g2005"
       transform="matrix(1.2040921,0.91632956,-0.91632956,1.2040921,986.38543,357.5775)"><path
         id="path3180"
         style="color:#000000;fill:#ffffff;stroke-width:3.77953;stroke-linejoin:round;-inkscape-stroke:none;paint-order:stroke fill markers"
         d="M 488.65625,43.816406 C 359.66212,45.300699 255.75851,151.22182 256.74805,280.2207 c 0.57743,75.27551 36.75865,142.1324 92.41992,184.67578 V 695.6875 H 191.53516 a 18.899528,18.899528 0 0 0 -18.89649,18.89844 v 216.48047 a 18.899528,18.899528 0 0 0 18.89649,18.89843 h 599.64648 a 18.899528,18.899528 0 0 0 18.89844,-18.89843 V 714.58594 A 18.899528,18.899528 0 0 0 791.18164,695.6875 H 633.54883 V 464.90234 c 56.14708,-42.91858 92.42771,-110.55883 92.42773,-186.48242 a 18.899528,18.899528 0 0 0 0,-0.14844 l -0.0293,-3.30664 a 18.899528,18.899528 0 0 0 0,-0.14843 C 723.96827,145.82889 617.65039,42.332114 488.65625,43.816406 Z m 0.43555,37.794922 C 597.71251,80.361465 686.49369,166.78529 688.16016,275.40039 l 0.0215,3.0332 c -0.004,52.92943 -20.77325,100.90331 -54.63281,136.23633 V 342.20703 A 18.899528,18.899528 0 0 0 614.65039,323.30859 H 368.06641 a 18.899528,18.899528 0 0 0 -18.89844,18.89844 v 72.4668 C 315.65239,379.70107 294.94485,332.32348 294.54297,279.93359 293.70972,171.30892 380.47114,82.861191 489.0918,81.611328 Z M 386.96484,361.10352 h 208.78907 v 84.30078 c -30.03466,18.78087 -65.53141,29.69171 -103.64258,29.83789 -38.65119,0.14824 -74.69804,-10.79094 -105.14649,-29.83008 z M 595.75391,488.48438 V 695.6875 H 386.96484 V 488.48633 c 31.72597,15.83352 67.49928,24.69573 105.29493,24.55078 37.15657,-0.14251 72.28906,-8.9796 103.49414,-24.55273 z m -385.32032,245 H 772.2832 V 912.16992 H 210.43359 Z"
         transform="matrix(0.26458333,0,0,0.26458333,-11.446721,8.7762564)" /><path
         style="color:#000000;fill:#000000;stroke-width:10;stroke-linejoin:round;-inkscape-stroke:none;paint-order:stroke fill markers"
         d="m 85.938228,99.31812 h 65.241322 v 98.52501 H 85.938228 Z"
         id="path3182" /><path
         style="color:#000000;fill:#000000;stroke-width:10;stroke-linejoin:round;-inkscape-stroke:none;paint-order:stroke fill markers"
         d="M 39.231064,197.84313 H 197.88671 v 57.27758 H 39.231064 Z"
         id="path3176" /><path
         style="color:#000000;fill:#000000;stroke-width:10;stroke-linejoin:round;-inkscape-stroke:none;paint-order:stroke fill markers"
         d="M 175.63459,82.441456 A 57.07568,57.07568 0 0 1 118.77782,139.51671 57.07568,57.07568 0 0 1 61.484917,82.879263 57.07568,57.07568 0 0 1 117.90221,25.369554 57.07568,57.07568 0 0 1 175.62788,81.56587 Z"
         id="path3188" /></g><path
       id="path3180-5"
       style="color:#000000;fill:#000000;stroke-width:1.51315204;stroke-linejoin:round;stroke-dasharray:none;paint-order:stroke fill markers;fill-opacity:0.99965215"
       d="m 34.97801,681.19666 c -44.6157644,26.013 -59.853906,83.4263 -34.01221312,128.14151 15.07956112,26.09294 40.89056012,42.2177 68.67784212,46.02744 l 45.616841,80.34959 -54.879659,31.15681 a 7.5662995,7.5662995 0 0 0 -2.843431,10.31444 l 42.7883,75.36735 a 7.5662995,7.5662995 0 0 0 10.31415,2.8445 L 319.40599,936.87562 a 7.5662995,7.5662995 0 0 0 2.84411,-10.31482 l -42.7883,-75.3674 a 7.5662995,7.5662995 0 0 0 -10.31483,-2.84411 l -54.87966,31.15681 -45.61568,-80.34756 c 11.06449,-26.03976 10.32616,-56.75965 -4.68046,-83.19235 a 7.5662995,7.5662995 0 0 0 -0.0293,-0.0517 l -0.66377,-1.14541 a 7.5662995,7.5662995 0 0 0 -0.0293,-0.0517 C 137.0648,670.20174 79.593778,655.18365 34.97801,681.19666 Z m 7.621966,13.07216 c 37.56912,-21.90449 85.560214,-9.36413 107.608644,28.12069 l 0.60701,1.05176 c 10.46033,18.4281 12.71179,39.23528 7.90735,58.22891 l -14.3226,-25.22786 a 7.5662995,7.5662995 0 0 0 -10.31483,-2.8441 l -85.847901,48.73839 a 7.5662995,7.5662995 0 0 0 -2.844109,10.31482 l 14.323376,25.22923 C 41.135992,832.32943 24.562303,819.92792 14.067301,801.76788 -7.6929288,764.11504 5.0308727,716.1733 42.599976,694.26882 Z m 19.687468,117.49069 72.689646,-41.26807 16.66242,29.34921 c -6.74441,12.47502 -16.94599,23.2897 -30.18545,30.87343 -13.42706,7.69118 -28.138901,11.00754 -42.502659,10.39735 z m 97.867026,3.07942 40.95459,72.1375 -72.68965,41.26806 -40.954203,-72.13682 c 14.174923,-0.75836 28.381003,-4.74374 41.510863,-12.26468 12.90784,-7.39377 23.39249,-17.41448 31.1784,-29.00406 z m -85.723469,161.45666 195.607219,-111.052 35.31797,62.20914 -195.60722,111.05197 z" /><path
       style="color:#000000;fill:#ffffff;stroke-width:1.51315;stroke-linejoin:round;stroke-dasharray:none;paint-order:stroke fill markers;fill-opacity:1"
       d="m 51.973636,808.915 85.846994,-48.73788 73.60212,129.64292 -85.84699,48.73788 z"
       id="path3182-6" /><path
       style="color:#000000;fill:#ffffff;stroke-width:1.51315;stroke-linejoin:round;stroke-dasharray:none;paint-order:stroke fill markers;fill-opacity:1"
       d="M 64.116709,973.45004 272.88179,854.92793 315.67043,930.29593 106.90535,1048.818 Z"
       id="path3176-2" /><path
       style="color:#000000;fill:#ffffff;stroke-width:1.51315;stroke-linejoin:round;stroke-dasharray:none;paint-order:stroke fill markers;fill-opacity:1"
       d="M 157.39195,719.70128 A 86.361701,86.361701 0 0 1 125.21516,837.27733 86.361701,86.361701 0 0 1 7.5165639,805.55173 86.361701,86.361701 0 0 1 38.790514,687.73231 86.361701,86.361701 0 0 1 156.72902,718.55416 Z"
       id="path3188-9" /><text
       xml:space="preserve"
       style="font-style:normal;font-weight:normal;font-size:192.806px;line-height:1.25;font-family:sans-serif;fill:#000000;fill-opacity:1;stroke:none;stroke-width:4.82016"
       x="199.2047"
       y="296.15207"
       id="text483"><tspan
         sodipodi:role="line"
         id="tspan481"
         x="199.2047"
         y="296.15207"
         style="font-style:normal;font-variant:normal;font-weight:bold;font-stretch:normal;font-family:sans-serif;-inkscape-font-specification:'sans-serif Bold';stroke-width:4.82016">CHESS</tspan></text></g></svg>
