<?xml version="1.0" encoding="UTF-8" standalone="no"?>
<!-- Created with Inkscape (http://www.inkscape.org/) -->

<svg
   width="1024"
   height="1024"
   viewBox="0 0 270.93333 270.93334"
   version="1.1"
   id="svg5"
   inkscape:version="1.1.2 (0a00cf5339, 2022-02-04)"
   sodipodi:docname="pawn.svg"
   inkscape:export-filename="/home/yue/Projects/GitHub/chess/pawn.png"
   inkscape:export-xdpi="96"
   inkscape:export-ydpi="96"
   xmlns:inkscape="http://www.inkscape.org/namespaces/inkscape"
   xmlns:sodipodi="http://sodipodi.sourceforge.net/DTD/sodipodi-0.dtd"
   xmlns="http://www.w3.org/2000/svg"
   xmlns:svg="http://www.w3.org/2000/svg">
  <sodipodi:namedview
     id="namedview7"
     pagecolor="#ffffff"
     bordercolor="#666666"
     borderopacity="1.0"
     inkscape:pageshadow="2"
     inkscape:pageopacity="0.0"
     inkscape:pagecheckerboard="true"
     inkscape:document-units="mm"
     showgrid="false"
     units="px"
     width="1024px"
     inkscape:zoom="1.5554293"
     inkscape:cx="719.41553"
     inkscape:cy="466.75217"
     inkscape:window-width="3840"
     inkscape:window-height="2056"
     inkscape:window-x="0"
     inkscape:window-y="0"
     inkscape:window-maximized="1"
     inkscape:current-layer="g2005"
     inkscape:snap-object-midpoints="true"
     inkscape:snap-center="true"
     inkscape:object-paths="true"
     inkscape:snap-intersection-paths="true"
     inkscape:snap-smooth-nodes="true"
     inkscape:snap-midpoints="true"
     inkscape:snap-nodes="false"
     inkscape:snap-others="false" />
  <defs
     id="defs2" />
  <g
     inkscape:label="Layer 1"
     inkscape:groupmode="layer"
     id="layer1">
    <g
       id="g2005"
       transform="translate(11.446721,-8.7762564)">
      <path
         id="path3180"
         style="color:#000000;fill:#ffffff;stroke-width:3.77953;stroke-linejoin:round;-inkscape-stroke:none;paint-order:stroke fill markers"
         d="M 488.65625,43.816406 C 359.66212,45.300699 255.75851,151.22182 256.74805,280.2207 c 0.57743,75.27551 36.75865,142.1324 92.41992,184.67578 V 695.6875 H 191.53516 a 18.899528,18.899528 0 0 0 -18.89649,18.89844 v 216.48047 a 18.899528,18.899528 0 0 0 18.89649,18.89843 h 599.64648 a 18.899528,18.899528 0 0 0 18.89844,-18.89843 V 714.58594 A 18.899528,18.899528 0 0 0 791.18164,695.6875 H 633.54883 V 464.90234 c 56.14708,-42.91858 92.42771,-110.55883 92.42773,-186.48242 a 18.899528,18.899528 0 0 0 0,-0.14844 l -0.0293,-3.30664 a 18.899528,18.899528 0 0 0 0,-0.14843 C 723.96827,145.82889 617.65039,42.332114 488.65625,43.816406 Z m 0.43555,37.794922 C 597.71251,80.361465 686.49369,166.78529 688.16016,275.40039 l 0.0215,3.0332 c -0.004,52.92943 -20.77325,100.90331 -54.63281,136.23633 V 342.20703 A 18.899528,18.899528 0 0 0 614.65039,323.30859 H 368.06641 a 18.899528,18.899528 0 0 0 -18.89844,18.89844 v 72.4668 C 315.65239,379.70107 294.94485,332.32348 294.54297,279.93359 293.70972,171.30892 380.47114,82.861191 489.0918,81.611328 Z M 386.96484,361.10352 h 208.78907 v 84.30078 c -30.03466,18.78087 -65.53141,29.69171 -103.64258,29.83789 -38.65119,0.14824 -74.69804,-10.79094 -105.14649,-29.83008 z M 595.75391,488.48438 V 695.6875 H 386.96484 V 488.48633 c 31.72597,15.83352 67.49928,24.69573 105.29493,24.55078 37.15657,-0.14251 72.28906,-8.9796 103.49414,-24.55273 z m -385.32032,245 H 772.2832 V 912.16992 H 210.43359 Z"
         transform="matrix(0.26458333,0,0,0.26458333,-11.446721,8.7762564)" />
      <path
         style="color:#000000;fill:#000000;stroke-width:10;stroke-linejoin:round;-inkscape-stroke:none;paint-order:stroke fill markers"
         d="m 85.938228,99.31812 h 65.241322 v 98.52501 H 85.938228 Z"
         id="path3182" />
      <path
         style="color:#000000;fill:#000000;stroke-width:10;stroke-linejoin:round;-inkscape-stroke:none;paint-order:stroke fill markers"
         d="M 39.231064,197.84313 H 197.88671 v 57.27758 H 39.231064 Z"
         id="path3176" />
      <path
         style="color:#000000;fill:#000000;stroke-width:10;stroke-linejoin:round;-inkscape-stroke:none;paint-order:stroke fill markers"
         d="M 175.63459,82.441456 A 57.07568,57.07568 0 0 1 118.77782,139.51671 57.07568,57.07568 0 0 1 61.484917,82.879263 57.07568,57.07568 0 0 1 117.90221,25.369554 57.07568,57.07568 0 0 1 175.62788,81.56587 Z"
         id="path3188" />
    </g>
  </g>
</svg>
